# File created by Blade
# Date/Time:  Fri Jan 16 17:25:32 2015
#---------------------------------------------------------
:version 1.10
:name HOM
:units
  mass 1.0
  length 1.000000
  angle deg
:documentation
     Acclaim Skeleton File
:root
   axis xyz
   order TX TY TZ RX RY RZ
   position 0.000000 0.000000 0.000000
   orientation 0 0 0
:bonedata
   begin
      id 1
      name Spine_dum
      direction 0.000000 1.000000 0.000000
      length 7.170412
      axis 0.0 0.0 0.0 xyz
   end
   begin
      id 2
      name LeftUpLeg_dum
      direction 1.000000 0.000000 0.000000
      length 4.318350
      axis 0.0 0.0 0.0 xyz
   end
   begin
      id 3
      name RightUpLeg_dum
      direction -1.000000 0.000000 0.000000
      length 4.318350
      axis 0.0 0.0 0.0 xyz
   end
   begin
      id 4
      name Spine
      direction 0.000000 1.000000 0.000000
      length 0.000000
      axis 0.0 0.0 0.0 xyz
      dof rx ry rz
   end
   begin
      id 5
      name Spine_dum1
      direction 0.000000 1.000000 0.000000
      length 14.276153
      axis 0.0 0.0 0.0 xyz
   end
   begin
      id 6
      name Spine_dum2
      direction 0.000000 1.000000 0.000000
      length 10.718243
      axis 0.0 0.0 0.0 xyz
   end
   begin
      id 7
      name Spine_dum3
      direction 0.000000 1.000000 0.000000
      length 10.718243
      axis 0.0 0.0 0.0 xyz
   end
   begin
      id 8
      name Head
      direction 0.000000 1.000000 0.000000
      length 4.527550
      axis 0.0 0.0 0.0 xyz
      dof rx ry rz
   end
   begin
      id 9
      name LeftShoulder
      direction 1.000000 0.000000 0.000000
      length 7.058872
      axis 0.0 0.0 -90.0 xyz
      dof rx ry rz
   end
   begin
      id 10
      name LeftArm
      direction 1.000000 0.000000 0.000000
      length 10.955525
      axis 0.0 0.0 -90.0 xyz
      dof rx ry rz
   end
   begin
      id 11
      name LeftForeArm
      direction 1.000000 0.000000 0.000000
      length 8.193716
      axis 0.0 0.0 -90.0 xyz
      dof ry rz rx
   end
   begin
      id 12
      name LeftHand
      direction 0.000000 0.000000 0.000000
      length 0.000000
      axis 0.0 0.0 -90.0 xyz
      dof rx ry rz
   end
   begin
      id 13
      name LeftHand_dum1
      direction 0.000000 0.000000 0.000000
      length 0.000000
      axis 0.0 0.0 -90.0 xyz
   end
   begin
      id 14
      name LeftHand_dum2
      direction 1.000000 0.000000 0.000000
      length 3.937000
      axis 0.0 0.0 -90.0 xyz
   end
   begin
      id 15
      name LeftHandThumb1
      direction 0.000000 0.000000 1.000000
      length 3.937000
      axis 0.0 0.0 -90.0 xyz
      dof rx rz ry
   end
   begin
      id 16
      name RightShoulder
      direction -1.000000 0.000000 0.000000
      length 7.058872
      axis 0.0 0.0 90.0 xyz
      dof rx ry rz
   end
   begin
      id 17
      name RightArm
      direction -1.000000 0.000000 0.000000
      length 10.955525
      axis 0.0 0.0 90.0 xyz
      dof rx ry rz
   end
   begin
      id 18
      name RightForeArm
      direction -1.000000 0.000000 0.000000
      length 8.193716
      axis 0.0 0.0 90.0 xyz
      dof ry rz rx
   end
   begin
      id 19
      name RightHand
      direction 0.000000 0.000000 0.000000
      length 0.000000
      axis 0.0 0.0 90.0 xyz
      dof rx ry rz
   end
   begin
      id 20
      name RightHand_dum1
      direction 0.000000 0.000000 0.000000
      length 0.000000
      axis 0.0 0.0 90.0 xyz
   end
   begin
      id 21
      name RightHand_dum2
      direction -1.000000 0.000000 0.000000
      length 3.937000
      axis 0.0 0.0 90.0 xyz
   end
   begin
      id 22
      name RightHandThumb1
      direction 0.000000 0.000000 1.000000
      length 3.937000
      axis 0.0 0.0 90.0 xyz
      dof rx rz ry
   end
   begin
      id 23
      name LeftUpLeg
      direction 0.000000 -1.000000 0.000000
      length 17.323638
      axis 0.0 0.0 0.0 xyz
      dof rx ry rz
   end
   begin
      id 24
      name LeftLeg
      direction 0.000000 -1.000000 0.000000
      length 16.270368
      axis 0.0 0.0 0.0 xyz
      dof rx ry rz
   end
   begin
      id 25
      name LeftFoot
      direction 0.000000 -0.258819 0.965926
      length 4.922846
      axis 15.0 0.0 0.0 xyz
      dof rx ry rz
   end
   begin
      id 26
      name LeftToeBase
      direction 0.000000 0.000000 1.000000
      length 2.952750
      axis 0.0 0.0 0.0 xyz
      dof rx ry rz
   end
   begin
      id 27
      name RightUpLeg
      direction 0.000000 -1.000000 0.000000
      length 17.323638
      axis 0.0 0.0 0.0 xyz
      dof rx ry rz
   end
   begin
      id 28
      name RightLeg
      direction 0.000000 -1.000000 0.000000
      length 16.270368
      axis 0.0 0.0 0.0 xyz
      dof rx ry rz
   end
   begin
      id 29
      name RightFoot
      direction 0.000000 -0.258819 0.965926
      length 4.922846
      axis 15.0 0.0 0.0 xyz
      dof rx ry rz
   end
   begin
      id 30
      name RightToeBase
      direction 0.000000 0.000000 1.000000
      length 2.952750
      axis 0.0 0.0 0.0 xyz
      dof rx ry rz
   end
:hierarchy
   begin
      root Spine_dum LeftUpLeg_dum RightUpLeg_dum
      Spine_dum Spine
      LeftUpLeg_dum LeftUpLeg
      RightUpLeg_dum RightUpLeg
      Spine Spine_dum1 Spine_dum2 Spine_dum3
      Spine_dum1 Head
      Spine_dum2 LeftShoulder
      Spine_dum3 RightShoulder
      LeftShoulder LeftArm
      LeftArm LeftForeArm
      LeftForeArm LeftHand
      LeftHand LeftHand_dum1 LeftHand_dum2
      LeftHand_dum1 LeftHandThumb1
      RightShoulder RightArm
      RightArm RightForeArm
      RightForeArm RightHand
      RightHand RightHand_dum1 RightHand_dum2
      RightHand_dum1 RightHandThumb1
      LeftUpLeg LeftLeg
      LeftLeg LeftFoot
      LeftFoot LeftToeBase
      RightUpLeg RightLeg
      RightLeg RightFoot
      RightFoot RightToeBase
   end

# File created by Blade
# Date/Time:  Fri Jan 16 17:25:22 2015
# Frame Rate: 120.000 fps
#------------------------------------------------------
:FULLY-SPECIFIED
:DEGREES
48
root -6.087945 35.268286 -10.085780 -1.627013 -7.367855 -6.214732
Spine 0.767783 -0.523041 9.240964
Head 4.320869 8.088937 -6.681841
LeftShoulder -24.928995 14.387609 3.886553
LeftArm 26.673772 -54.758539 -32.442197
LeftForeArm 22.781426 -0.000000 4.981602
LeftHand -8.213578 0.000000 -3.166516
LeftHandThumb1 -26.253704 0.000000 33.147579
RightShoulder -9.684269 13.576329 -21.235994
RightArm -2.354612 14.085958 17.734972
RightForeArm -35.367716 0.000000 16.149664
RightHand -5.389499 -0.000000 13.583429
RightHandThumb1 -24.326973 -0.000000 -32.862282
LeftUpLeg 11.728762 16.450411 8.856752
LeftLeg -8.200355 -0.000000 0.000000
LeftFoot -15.811940 27.373830 -9.746205
LeftToeBase 22.467434 -0.000000 -0.000000
RightUpLeg 7.238022 -4.539016 3.341915
RightLeg -2.279838 -0.000000 0.000000
RightFoot -6.131673 -22.970411 7.620195
RightToeBase 13.213900 -0.000000 -0.000000
49
root -6.084548 35.269914 -10.108742 -1.599473 -7.426603 -6.224248
Spine 0.772316 -0.499211 9.242177
Head 4.332257 8.083994 -6.653429
LeftShoulder -24.903229 14.346918 3.946243
LeftArm 26.519525 -54.913485 -32.371054
LeftForeArm 22.654938 -0.000000 5.026532
LeftHand -8.261476 -0.000000 -3.214755
LeftHandThumb1 -26.253704 0.000000 33.147579
RightShoulder -9.629618 13.565794 -21.186930
RightArm -2.357323 14.219419 17.675589
RightForeArm -35.495504 -0.000000 16.286511
RightHand -5.491911 -0.000000 13.604625
RightHandThumb1 -24.326973 -0.000000 -32.862282
LeftUpLeg 11.669586 16.447541 8.847162
LeftLeg -8.177617 -0.000000 0.000000
LeftFoot -15.761085 27.417173 -9.625599
LeftToeBase 22.448242 -0.000000 -0.000000
RightUpLeg 7.200597 -4.392088 3.364893
RightLeg -2.339745 -0.000000 0.000000
RightFoot -6.072282 -23.043729 7.643845
RightToeBase 13.236884 -0.000000 -0.000000
50
root -6.081528 35.272004 -10.132180 -1.575750 -7.483483 -6.221558
Spine 0.799034 -0.464040 9.221791
Head 4.290616 8.082719 -6.618716
LeftShoulder -24.903068 14.309716 3.999616
LeftArm 26.462662 -55.099558 -32.385082
LeftForeArm 22.568968 -0.000000 5.059802
LeftHand -8.249447 0.000000 -3.014905
LeftHandThumb1 -26.253704 0.000000 33.147579
RightShoulder -9.636188 13.605162 -21.197294
RightArm -2.350772 14.238478 17.689988
RightForeArm -35.525528 0.000000 16.417296
RightHand -5.461386 -0.000000 13.385408
RightHandThumb1 -24.326973 -0.000000 -32.862282
LeftUpLeg 11.599707 16.453197 8.822512
LeftLeg -8.134902 -0.000000 0.000000
LeftFoot -15.756837 27.460220 -9.605520
LeftToeBase 22.478315 -0.000000 -0.000000
RightUpLeg 7.144453 -4.297005 3.370702
RightLeg -2.363852 -0.000000 0.000000
RightFoot -6.021903 -23.070800 7.659200
RightToeBase 13.220958 -0.000000 -0.000000
51
root -6.074318 35.274499 -10.155343 -1.553152 -7.548010 -6.235786
Spine 0.833506 -0.420890 9.259166
Head 4.237575 8.107339 -6.643420
LeftShoulder -24.895739 14.265346 4.017423
LeftArm 26.382711 -55.269189 -32.377497
LeftForeArm 22.465887 -0.000000 5.085816
LeftHand -8.344241 -0.000000 -2.898990
LeftHandThumb1 -26.253704 0.000000 33.147579
RightShoulder -9.632068 13.622862 -21.240371
RightArm -2.354070 14.305829 17.704506
RightForeArm -35.535818 0.000000 16.556691
RightHand -5.568818 -0.000000 13.323346
RightHandThumb1 -24.326973 -0.000000 -32.862282
LeftUpLeg 11.535964 16.473303 8.808463
LeftLeg -8.102490 -0.000000 0.000000
LeftFoot -15.767864 27.518972 -9.574087
LeftToeBase 22.521916 -0.000000 -0.000000
RightUpLeg 7.046605 -4.336450 3.379053
RightLeg -2.304549 -0.000000 0.000000
RightFoot -5.966911 -23.010605 7.590892
RightToeBase 13.283142 -0.000000 -0.000000
52
root -6.067697 35.276274 -10.177688 -1.534112 -7.597039 -6.226800
Spine 0.867896 -0.402921 9.253826
Head 4.167950 8.154364 -6.647477
LeftShoulder -24.903168 14.242602 4.033810
LeftArm 26.315064 -55.427505 -32.364548
LeftForeArm 22.296601 -0.000000 5.118958
LeftHand -8.386788 -0.000000 -2.864061
LeftHandThumb1 -26.253704 0.000000 33.147579
RightShoulder -9.628649 13.651465 -21.274422
RightArm -2.338054 14.329713 17.734211
RightForeArm -35.558730 -0.000000 16.665485
RightHand -5.676155 -0.000000 13.078340
RightHandThumb1 -24.326973 -0.000000 -32.862282
LeftUpLeg 11.471050 16.472358 8.772355
LeftLeg -8.068611 -0.000000 0.000000
LeftFoot -15.766520 27.578991 -9.566389
LeftToeBase 22.518367 -0.000000 -0.000000
RightUpLeg 6.978545 -4.312274 3.369701
RightLeg -2.295616 -0.000000 0.000000
RightFoot -5.930663 -23.004947 7.577970
RightToeBase 13.241606 -0.000000 -0.000000
53
root -6.059265 35.278449 -10.199698 -1.509776 -7.679098 -6.226059
Spine 0.895153 -0.352878 9.266381
Head 4.115688 8.155294 -6.687447
LeftShoulder -24.925319 14.250199 4.041089
LeftArm 26.326461 -55.598018 -32.435302
LeftForeArm 22.109792 -0.000000 5.140000
LeftHand -8.498400 -0.000000 -2.866723
LeftHandThumb1 -26.253704 0.000000 33.147579
RightShoulder -9.600462 13.665470 -21.312469
RightArm -2.330753 14.336363 17.759176
RightForeArm -35.515582 0.000000 16.736344
RightHand -5.693602 0.000000 12.775352
RightHandThumb1 -24.326973 -0.000000 -32.862282
LeftUpLeg 11.419926 16.473227 8.739825
LeftLeg -8.053958 -0.000000 0.000000
LeftFoot -15.768908 27.651316 -9.576906
LeftToeBase 22.540445 -0.000000 -0.000000
RightUpLeg 6.895981 -4.235162 3.365643
RightLeg -2.267256 -0.000000 0.000000
RightFoot -5.899926 -22.993562 7.588076
RightToeBase 13.263824 -0.000000 -0.000000
54
root -6.051704 35.280797 -10.223720 -1.480355 -7.733615 -6.217894
Spine 0.926980 -0.320328 9.262486
Head 4.026147 8.171076 -6.715017
LeftShoulder -24.929000 14.236464 4.055159
LeftArm 26.314216 -55.813468 -32.498965
LeftForeArm 22.061647 -0.000000 5.170832
LeftHand -8.515243 -0.000000 -2.716218
LeftHandThumb1 -26.253704 0.000000 33.147579
RightShoulder -9.612428 13.696158 -21.337636
RightArm -2.288051 14.250531 17.769934
RightForeArm -35.323223 -0.000000 16.782682
RightHand -5.735953 0.000000 12.682523
RightHandThumb1 -24.326973 -0.000000 -32.862282
LeftUpLeg 11.336199 16.453870 8.697365
LeftLeg -8.004472 -0.000000 0.000000
LeftFoot -15.775803 27.717179 -9.555836
LeftToeBase 22.506647 -0.000000 -0.000000
RightUpLeg 6.807048 -4.221579 3.354486
RightLeg -2.243778 -0.000000 0.000000
RightFoot -5.860731 -22.957676 7.567676
RightToeBase 13.297845 -0.000000 -0.000000
